<mxfile host="app.diagrams.net" agent="Mozilla/5.0 (Windows NT 10.0; Win64; x64; rv:130.0) Gecko/20100101 Firefox/130.0" version="24.7.16">
  <diagram name="Page-1" id="yKOgIpQ0CL8Su2-FusHn">
    <mxGraphModel dx="934" dy="454" grid="1" gridSize="10" guides="1" tooltips="1" connect="1" arrows="1" fold="1" page="1" pageScale="1" pageWidth="850" pageHeight="1100" math="0" shadow="0">
      <root>
        <mxCell id="0" />
        <mxCell id="1" parent="0" />
        <mxCell id="GiysxLulYcTHSs4wFX8B-7" value="" style="edgeStyle=orthogonalEdgeStyle;rounded=0;orthogonalLoop=1;jettySize=auto;html=1;fontStyle=1;fontSize=16;align=center;strokeWidth=3;" edge="1" parent="1" source="GiysxLulYcTHSs4wFX8B-1" target="GiysxLulYcTHSs4wFX8B-2">
          <mxGeometry relative="1" as="geometry" />
        </mxCell>
        <mxCell id="GiysxLulYcTHSs4wFX8B-1" value="&lt;div style=&quot;font-size: 17px;&quot;&gt;&lt;font style=&quot;font-size: 17px;&quot;&gt;&lt;span style=&quot;font-family: Calibri; font-size: 17px;&quot;&gt;Problem&lt;/span&gt;&lt;span style=&quot;font-family: Calibri; font-size: 17px;&quot;&gt; sub-domain research&lt;br style=&quot;font-size: 17px;&quot;&gt;&lt;/span&gt;&lt;/font&gt;&lt;/div&gt;" style="rounded=1;whiteSpace=wrap;html=1;fontStyle=1;fontSize=17;align=center;fillColor=#1ba1e2;strokeColor=#006EAF;fontColor=#ffffff;arcSize=50;" vertex="1" parent="1">
          <mxGeometry x="20" y="110" width="220" height="60" as="geometry" />
        </mxCell>
        <mxCell id="GiysxLulYcTHSs4wFX8B-8" value="" style="edgeStyle=orthogonalEdgeStyle;rounded=0;orthogonalLoop=1;jettySize=auto;html=1;fontStyle=1;fontSize=16;align=center;strokeWidth=3;" edge="1" parent="1" source="GiysxLulYcTHSs4wFX8B-2" target="GiysxLulYcTHSs4wFX8B-3">
          <mxGeometry relative="1" as="geometry" />
        </mxCell>
        <mxCell id="GiysxLulYcTHSs4wFX8B-2" value="&lt;font style=&quot;font-size: 16px;&quot;&gt;Analyzing Research Paper&lt;/font&gt;" style="rounded=1;whiteSpace=wrap;html=1;fontStyle=1;fontSize=16;align=center;fillColor=#1ba1e2;fontColor=#FFFFFF;strokeColor=#006EAF;arcSize=50;" vertex="1" parent="1">
          <mxGeometry x="280" y="110" width="220" height="60" as="geometry" />
        </mxCell>
        <mxCell id="GiysxLulYcTHSs4wFX8B-14" style="edgeStyle=orthogonalEdgeStyle;rounded=0;orthogonalLoop=1;jettySize=auto;html=1;entryX=1;entryY=0.5;entryDx=0;entryDy=0;fontStyle=1;fontSize=16;align=center;strokeWidth=4;" edge="1" parent="1" target="GiysxLulYcTHSs4wFX8B-4">
          <mxGeometry relative="1" as="geometry">
            <mxPoint x="760.0000000000002" y="140" as="sourcePoint" />
            <mxPoint x="870" y="280" as="targetPoint" />
            <Array as="points">
              <mxPoint x="800" y="140" />
              <mxPoint x="800" y="239" />
            </Array>
          </mxGeometry>
        </mxCell>
        <mxCell id="GiysxLulYcTHSs4wFX8B-3" value="&lt;font style=&quot;font-size: 16px;&quot;&gt;Dataset Research&lt;/font&gt;" style="rounded=1;whiteSpace=wrap;html=1;fontStyle=1;fontSize=16;align=center;fillColor=#1ba1e2;fontColor=#FFFFFF;strokeColor=#006EAF;arcSize=50;" vertex="1" parent="1">
          <mxGeometry x="540" y="110" width="220" height="60" as="geometry" />
        </mxCell>
        <mxCell id="GiysxLulYcTHSs4wFX8B-12" value="" style="edgeStyle=orthogonalEdgeStyle;rounded=0;orthogonalLoop=1;jettySize=auto;html=1;fontStyle=1;fontSize=16;align=center;strokeWidth=3;" edge="1" parent="1" source="GiysxLulYcTHSs4wFX8B-4" target="GiysxLulYcTHSs4wFX8B-5">
          <mxGeometry relative="1" as="geometry" />
        </mxCell>
        <mxCell id="GiysxLulYcTHSs4wFX8B-4" value="&lt;font style=&quot;font-size: 17px;&quot;&gt;&lt;span style=&quot;font-family: Calibri; font-size: 17px;&quot;&gt;Algorithm Analysis&lt;/span&gt;&lt;span style=&quot;font-family: Calibri; font-size: 17px;&quot;&gt;&lt;br style=&quot;font-size: 17px;&quot;&gt;&lt;/span&gt;&lt;/font&gt;" style="rounded=1;whiteSpace=wrap;html=1;fontStyle=1;fontSize=17;align=center;fillColor=#1ba1e2;fontColor=#FFFFFF;strokeColor=#006EAF;arcSize=50;verticalAlign=middle;" vertex="1" parent="1">
          <mxGeometry x="541" y="209" width="220" height="60" as="geometry" />
        </mxCell>
        <mxCell id="GiysxLulYcTHSs4wFX8B-13" value="" style="edgeStyle=orthogonalEdgeStyle;rounded=0;orthogonalLoop=1;jettySize=auto;html=1;fontStyle=1;fontSize=16;align=center;strokeWidth=3;" edge="1" parent="1" source="GiysxLulYcTHSs4wFX8B-5" target="GiysxLulYcTHSs4wFX8B-6">
          <mxGeometry relative="1" as="geometry" />
        </mxCell>
        <mxCell id="GiysxLulYcTHSs4wFX8B-5" value="&lt;font style=&quot;font-size: 17px;&quot;&gt;A&lt;span style=&quot;font-family: Calibri; font-size: 17px;&quot;&gt;lgorithm &lt;/span&gt;&lt;span style=&quot;font-family: Calibri; font-size: 17px;&quot;&gt;Selection&lt;/span&gt;&lt;/font&gt;" style="rounded=1;whiteSpace=wrap;html=1;fontStyle=1;fontSize=17;align=center;fillColor=#1ba1e2;fontColor=#FFFFFF;strokeColor=#006EAF;arcSize=50;" vertex="1" parent="1">
          <mxGeometry x="280" y="210" width="220" height="60" as="geometry" />
        </mxCell>
        <mxCell id="GiysxLulYcTHSs4wFX8B-6" value="&lt;font style=&quot;font-size: 16px;&quot;&gt;User Interface&lt;/font&gt;" style="rounded=1;whiteSpace=wrap;html=1;fontStyle=1;fontSize=16;align=center;fillColor=#1ba1e2;fontColor=#ffffff;strokeColor=#006EAF;arcSize=50;" vertex="1" parent="1">
          <mxGeometry x="18" y="210" width="220" height="60" as="geometry" />
        </mxCell>
        <mxCell id="GiysxLulYcTHSs4wFX8B-15" value="" style="rounded=0;whiteSpace=wrap;html=1;fillColor=none;fontStyle=1;fontSize=16;align=center;" vertex="1" parent="1">
          <mxGeometry x="12" y="88" width="808" height="210" as="geometry" />
        </mxCell>
      </root>
    </mxGraphModel>
  </diagram>
</mxfile>
